<svg width="30" height="30" viewBox="0 0 30 30" fill="none" xmlns="http://www.w3.org/2000/svg">
<g id="Fingerprint-three (&#230;&#140;&#135;&#231;&#186;&#185;)">
<path id="Vector" d="M26.5197 7.52444C23.5643 4.61411 19.4717 2.8125 14.9495 2.8125C10.4539 2.8125 6.38292 4.59298 3.43164 7.47319" stroke="black" stroke-width="2" stroke-linecap="round" stroke-linejoin="round"/>
<path id="Vector_2" d="M4.16602 18.4216V18.3856C4.16602 12.4025 9.01627 7.55225 14.9993 7.55225" stroke="black" stroke-width="2" stroke-linecap="round" stroke-linejoin="round"/>
<path id="Vector_3" d="M19.4805 8.51929C23.2277 10.2238 25.8329 14.0003 25.8329 18.3853V18.3935" stroke="black" stroke-width="2" stroke-linecap="round" stroke-linejoin="round"/>
<path id="Vector_4" d="M8.90625 23.1248V18.3853C8.90625 15.0198 11.6345 12.2915 15 12.2915C18.3655 12.2915 21.0938 15.0198 21.0938 18.3853V23.1248" stroke="black" stroke-width="2" stroke-linecap="round" stroke-linejoin="round"/>
<path id="Vector_5" d="M10.9531 27.1875C12.1799 26.8846 12.9681 25.591 12.9681 24.4975C12.9681 23.3346 12.9681 21.5229 12.9681 19.0625C12.9681 17.9407 13.8775 17.0312 14.9993 17.0312C16.1211 17.0312 17.0306 17.9407 17.0306 19.0625V24.4975" stroke="black" stroke-width="2" stroke-linecap="round" stroke-linejoin="round"/>
</g>
</svg>
