<svg width="26" height="26" viewBox="0 0 26 26" fill="none" xmlns="http://www.w3.org/2000/svg">
<g id="Frame 36888">
<rect width="26" height="26" rx="5" fill="black"/>
<path id="Vector" d="M19.5507 6.13242C19.5507 6.13242 21.1233 5.48314 20.9922 7.05998C20.9486 7.70927 20.5554 9.98177 20.2496 12.4398L19.2012 19.7211C19.2012 19.7211 19.1139 20.7878 18.3275 20.9733C17.5412 21.1588 16.3618 20.324 16.1433 20.1385C15.9686 19.9994 12.867 17.9123 11.7749 16.892C11.4691 16.6138 11.1196 16.0572 11.8186 15.408L16.4054 10.7702C16.9296 10.2137 17.4539 8.9151 15.2696 10.4919L9.15388 14.8978C9.15388 14.8978 8.45494 15.3616 7.14444 14.9442L4.30496 14.0166C4.30496 14.0166 3.25654 13.321 5.04759 12.6253C9.416 10.4455 14.7891 8.2194 19.5507 6.13242Z" fill="white"/>
</g>
</svg>
