<svg width="26" height="26" viewBox="0 0 26 26" fill="none" xmlns="http://www.w3.org/2000/svg">
<g id="Frame 36888">
<rect width="26" height="26" rx="5" fill="black"/>
<g id="Group 70">
<g id="Group 52">
<g id="Group 51">
<path id="Vector" d="M5.05869 14.1448L5.12098 14.047L8.87566 8.17324C8.93051 8.08722 9.05954 8.09613 9.10105 8.18953C9.72832 9.59534 10.2696 11.3437 10.016 12.4321C9.90774 12.8799 9.61119 13.4864 9.27752 14.047C9.23451 14.1285 9.18707 14.2086 9.13665 14.2857C9.11292 14.3213 9.07289 14.3421 9.02988 14.3421H5.16842C5.06463 14.3421 5.00385 14.2294 5.05869 14.1448Z" fill="white"/>
<path id="Vector_2" d="M21.7947 15.2364V16.1662C21.7947 16.2195 21.762 16.267 21.7146 16.2877C21.424 16.4123 20.4289 16.8691 20.0152 17.4444C18.9594 18.9139 18.1527 21.0152 16.3495 21.0152H8.82682C6.16057 21.0152 4 18.8472 4 16.1721V16.0861C4 16.0149 4.05783 15.9571 4.12903 15.9571H8.32262C8.40566 15.9571 8.46647 16.0342 8.45906 16.1157C8.42939 16.3886 8.47981 16.6674 8.60881 16.921C8.85796 17.4266 9.374 17.7425 9.93158 17.7425H12.0076V16.1217H9.95528C9.85001 16.1217 9.78772 16.0001 9.84854 15.9141C9.87076 15.88 9.89598 15.8444 9.92266 15.8043C10.1169 15.5285 10.3942 15.0999 10.67 14.6121C10.8584 14.2829 11.0408 13.9314 11.1876 13.5785C11.2172 13.5148 11.241 13.4495 11.2647 13.3857C11.3047 13.273 11.3462 13.1677 11.3759 13.0625C11.4055 12.9735 11.4293 12.8801 11.453 12.7926C11.5227 12.493 11.5524 12.1757 11.5524 11.8465C11.5524 11.7175 11.5464 11.5826 11.5346 11.4535C11.5286 11.3126 11.5108 11.1718 11.493 11.0309C11.4812 10.9063 11.4589 10.7833 11.4352 10.6543C11.4055 10.4659 11.364 10.2791 11.3166 10.0908L11.3003 10.0196C11.2647 9.89058 11.235 9.76748 11.1935 9.63848C11.0764 9.23364 10.9414 8.8392 10.7991 8.46996C10.7472 8.32316 10.6878 8.18229 10.6285 8.04142C10.541 7.82935 10.452 7.63658 10.3705 7.45418C10.329 7.37114 10.2934 7.29551 10.2578 7.2184C10.2178 7.1309 10.1762 7.04344 10.1347 6.96036C10.1051 6.8966 10.0709 6.8373 10.0472 6.77799L9.79366 6.30939C9.75806 6.24563 9.81739 6.17 9.88706 6.18927L11.4738 6.61932H11.4782C11.4812 6.61932 11.4827 6.6208 11.4842 6.6208L11.6932 6.67863L11.9231 6.74386L12.0076 6.7676V5.82449C12.0076 5.36924 12.3724 5 12.8232 5C13.0486 5 13.2532 5.09192 13.4 5.24171C13.5468 5.3915 13.6388 5.59613 13.6388 5.82449V7.22433L13.8078 7.27177C13.8212 7.27623 13.8345 7.28216 13.8464 7.29105C13.8879 7.32219 13.9472 7.36819 14.0228 7.42451C14.0822 7.47198 14.1459 7.52981 14.2231 7.58911C14.3758 7.71221 14.5582 7.87088 14.7584 8.05325C14.8117 8.09925 14.8637 8.14669 14.9111 8.19416C15.1691 8.43436 15.4583 8.71613 15.7341 9.02753C15.8112 9.115 15.8869 9.20397 15.964 9.29741C16.0411 9.39231 16.1226 9.48574 16.1938 9.57918C16.2872 9.70372 16.388 9.83272 16.4755 9.96769C16.5171 10.0315 16.5645 10.0967 16.6046 10.1605C16.7173 10.331 16.8166 10.5075 16.9115 10.6839C16.9516 10.7655 16.9931 10.8544 17.0287 10.9419C17.134 11.1777 17.217 11.4179 17.2704 11.6582C17.2867 11.7101 17.2986 11.7664 17.3045 11.8169V11.8287C17.3223 11.8999 17.3282 11.9755 17.3341 12.0526C17.3579 12.2988 17.346 12.5449 17.2926 12.7926C17.2704 12.8979 17.2407 12.9972 17.2051 13.1025C17.1695 13.2033 17.134 13.3086 17.088 13.408C16.999 13.6141 16.8937 13.8202 16.7691 14.013C16.7291 14.0842 16.6817 14.1598 16.6342 14.231C16.5823 14.3066 16.5289 14.3778 16.4815 14.4475C16.4162 14.5365 16.3465 14.6299 16.2754 14.7129C16.2116 14.8004 16.1463 14.8879 16.0752 14.965C15.9758 15.0821 15.8809 15.1934 15.7816 15.3002C15.7223 15.3699 15.6585 15.441 15.5932 15.5048C15.5295 15.576 15.4642 15.6397 15.4049 15.699C15.3055 15.7984 15.2225 15.8755 15.1528 15.9393L14.9897 16.089C14.966 16.1098 14.9348 16.1217 14.9022 16.1217H13.6388V17.7425H15.2284C15.5843 17.7425 15.9224 17.6164 16.1953 17.3851C16.2887 17.3035 16.6965 16.9506 17.1784 16.4183C17.1947 16.4005 17.2155 16.3871 17.2392 16.3812L21.6301 15.1118C21.7116 15.0881 21.7947 15.1504 21.7947 15.2364Z" fill="white"/>
</g>
</g>
</g>
</g>
</svg>
